v 8.503279685974121 124.6189956665039 -5.480370044708252
vt 0.8255999684333801 0.34369999170303345
vn 0.9004234671592712 0.3366008698940277 0.2755674719810486
v 8.506799697875977 124.00299835205078 -5.446310043334961
vt 0.7663999795913696 0.4106000065803528
vn 0.7178992629051208 -0.3625916838645935 0.594262421131134
v 8.078800201416016 123.968994140625 -9.645919799804688
vt 0.8220000267028809 0.37060004472732544
vn 0.24267278611660004 -0.12428715825080872 -0.9621136784553528
v 5.038609981536865 124.0409927368164 -9.83922004699707
vt 0.8345999717712402 0.3831000328063965
vn -0.5149349570274353 0.15577702224254608 -0.8429564237594604
v 4.553639888763428 124.16099548339844 -8.283900260925293
vt 0.8111000061035156 0.33420002460479736
vn -0.6256622672080994 0.13490904867649078 -0.768339991569519
v 8.530290603637695 124.53799438476562 -9.350930213928223
vt 0.8226000070571899 0.36650002002716064
vn 0.8479142189025879 0.2859610617160797 -0.44639408588409424
v -12.044500350952148 136.70399475097656 -10.316200256347656
vt 0.4503999948501587 0.3312000036239624
vn 0.4059635102748871 0.19659516215324402 -0.8924930095672607
v -16.309398651123047 130.2100067138672 -10.374399185180664
vt 0.45819997787475586 0.3808000087738037
vn 0.2784411907196045 -0.4603891372680664 -0.8429189920425415
v -16.705400466918945 129.99899291992188 -10.192699432373047
vt 0.4583999812602997 0.3831000328063965
vn -0.1319630891084671 -0.9102280139923096 -0.39251843094825745
v -16.871898651123047 130.01699829101562 -8.148280143737793
vt 0.45819997787475586 0.3931000232696533
vn -0.24000857770442963 -0.967540979385376 0.07912339270114899
v -13.597799301147461 138.12899780273438 -7.971710205078125
vt 0.42980000376701355 0.329800009727478
vn -0.4582316279411316 0.8862168192863464 -0.06814319640398026
v -13.597799301147461 138.12899780273438 -7.971710205078125
vt 0.4382999837398529 0.319100022315979
vn -0.4582316279411316 0.8862168192863464 -0.06814319640398026
v -12.016500473022461 136.8820037841797 -7.700009822845459
vt 0.44829997420310974 0.3167000412940979
vn 0.8032013177871704 0.5925005674362183 0.061729129403829575
v -14.8572998046875 136.18299865722656 -9.02334976196289
vt 0.4368000030517578 0.34869998693466187
vn -0.5260109305381775 0.7350040674209595 -0.42788010835647583
v 0.3397430181503296 133.6800079345703 -9.285059928894043
vt 0.8956999778747559 0.3655000329017639
vn -0.09939459711313248 0.33640018105506897 -0.9364591240882874
v 0.33005401492118835 133.9669952392578 -8.943079948425293
vt 0.8953999876976013 0.36419999599456787
vn 0.1547558605670929 0.8926714062690735 -0.42330634593963623
v 4.553639888763428 124.16099548339844 -8.283900260925293
vt 0.7770000100135803 0.3637999892234802
vn -0.6256622672080994 0.13490904867649078 -0.768339991569519
v 5.024319648742676 124.58899688720703 -9.838239669799805
vt 0.7734999656677246 0.37240004539489746
vn -0.4340916574001312 -0.21397963166236877 -0.8750869631767273
v 0.4142260253429413 129.91299438476562 -9.457809448242188
vt 0.8788999915122986 0.379800021648407
vn -0.37459152936935425 -0.22196389734745026 -0.9002295136451721
v 0.38975802063941956 114.677001953125 -9.061610221862793
vt 0.828499972820282 0.3907000422477722
vn 0.08181938529014587 -0.8543518781661987 -0.5132136940956116
v 8.503279685974121 124.6189956665039 -5.480370044708252
vt 0.7627999782562256 0.41040003299713135
vn 0.9004234671592712 0.3366008698940277 0.2755674719810486
v 8.530290603637695 124.53799438476562 -9.350930213928223
vt 0.8248999714851379 0.36590003967285156
vn 0.8479142189025879 0.2859610617160797 -0.44639408588409424
v 8.489580154418945 123.98200225830078 -9.308939933776855
vt 0.7590000629425049 0.38749998807907104
vn 0.8262151479721069 -0.30586349964141846 -0.4730919897556305
v 8.530290603637695 124.53799438476562 -9.350930213928223
vt 0.7556999921798706 0.3871999979019165
vn 0.8479142189025879 0.2859610617160797 -0.44639408588409424
v 5.038609981536865 124.0409927368164 -9.83922004699707
vt 0.7714999914169312 0.3726000189781189
vn -0.5149349570274353 0.15577702224254608 -0.8429564237594604
v 0.3384700119495392 118.68899536132812 -9.430990219116211
vt 0.8138999938964844 0.37389999628067017
vn -0.5209064483642578 0.34556394815444946 -0.7805395126342773
v 8.078800201416016 123.968994140625 -9.645919799804688
vt 0.7594000101089478 0.3856000304222107
vn 0.24267278611660004 -0.12428715825080872 -0.9621136784553528
v 0.4135410189628601 115.10299682617188 -9.35336971282959
vt 0.8290999531745911 0.38830000162124634
vn 0.06641599535942078 -0.3570491373538971 -0.9317213892936707
v -8.528980255126953 124.6189956665039 -5.480370044708252
vt 0.7908999919891357 0.17160004377365112
vn -0.8090951442718506 0.31498587131500244 0.49613404273986816
v -0.012801999226212502 114.71800231933594 -5.743849754333496
vt 0.823199987411499 0.4093000292778015
vn -1.405946386512369e-05 -0.9963489770889282 -0.08537351340055466
v 0.3397430181503296 133.6800079345703 -9.285059928894043
vt 0.8978999853134155 0.3646000027656555
vn -0.09939459711313248 0.33640018105506897 -0.9364591240882874
v 8.503279685974121 124.6189956665039 -5.480370044708252
vt 0.7892000079154968 0.2079000473022461
vn 0.9004234671592712 0.3366008698940277 0.2755674719810486
v 8.489580154418945 123.98200225830078 -9.308939933776855
vt 0.8203999996185303 0.3688000440597534
vn 0.8262151479721069 -0.30586349964141846 -0.4730919897556305
v -14.737699508666992 136.47698974609375 -7.960330009460449
vt 0.10189999639987946 0.32920002937316895
vn 0.042144279927015305 0.9784281849861145 -0.20224258303642273
v -13.458499908447266 137.96499633789062 -10.051499366760254
vt 0.44039997458457947 0.32910001277923584
vn -0.14462105929851532 0.9181549549102783 -0.3688850998878479
v -17.60209846496582 138.64500427246094 -8.141690254211426
vt 0.07900000363588333 0.3294000029563904
vn 0.6508325338363647 0.753774881362915 -0.09077630937099457
v -14.737699508666992 136.47698974609375 -7.960330009460449
vt 0.43129998445510864 0.3476000428199768
vn 0.042144279927015305 0.9784281849861145 -0.20224258303642273
v -12.121700286865234 136.3419952392578 -7.689729690551758
vt 0.46320000290870667 0.3278999924659729
vn 0.9307965636253357 -0.3424374461174011 0.12788334488868713
v -29.98699951171875 145.7239990234375 -9.925950050354004
vt 0.3780999779701233 0.33649998903274536
vn -0.6672810316085815 0.6022833585739136 -0.43816739320755005
v -25.893199920654297 148.08900451660156 -10.248899459838867
vt 0.4077000021934509 0.3368000388145447
vn 0.12247162312269211 0.34945932030677795 -0.9289126992225647
v -30.22719955444336 145.56900024414062 -8.484939575195312
vt 0.37529999017715454 0.32840001583099365
vn -0.8809683918952942 0.4707481265068054 -0.04786427319049835
v -27.07979965209961 142.94900512695312 -9.47191047668457
vt 0.38359999656677246 0.3615000247955322
vn -0.20428408682346344 -0.9514904618263245 -0.2300734668970108
v -30.258798599243164 145.32598876953125 -8.426309585571289
vt 0.3660000264644623 0.3409000039100647
vn -0.9144869446754456 -0.4034857451915741 0.03021428734064102
v -27.577301025390625 142.8629913330078 -8.31190013885498
vt 0.37700000405311584 0.36570000648498535
vn -0.22727739810943604 -0.9721196889877319 0.0576910674571991
v -21.495098114013672 109.66799926757812 -3.624379873275757
vt 0.349700003862381 0.4595000147819519
vn -0.11786463111639023 0.21742232143878937 0.9689351916313171
v -27.631099700927734 142.85000610351562 -9.608349800109863
vt 0.38089999556541443 0.3589000105857849
vn -0.3623885214328766 -0.8770127892494202 -0.3154727518558502
v -24.05299949645996 145.5749969482422 -9.581329345703125
vt 0.018199998885393143 0.3361000418663025
vn 0.9105452299118042 -0.06952343881130219 -0.4075213670730591
v -27.577301025390625 142.8629913330078 -8.31190013885498
vt 0.3734000027179718 0.36160004138946533
vn -0.22727739810943604 -0.9721196889877319 0.0576910674571991
v -19.433399200439453 136.28900146484375 -9.235349655151367
vt 0.0811999961733818 0.3529999852180481
vn -0.46153220534324646 -0.5733934044837952 -0.6769106388092041
v -26.718299865722656 142.97898864746094 -9.760350227355957
vt 0.3868999779224396 0.3611000180244446
vn 0.10879771411418915 -0.5154160857200623 -0.8500054478645325
v -24.05299949645996 145.5749969482422 -9.581329345703125
vt 0.4104999899864197 0.35620003938674927
vn 0.9105452299118042 -0.06952343881130219 -0.4075213670730591
v -30.258798599243164 145.32598876953125 -8.426309585571289
vt 0.37359997630119324 0.3285999894142151
vn -0.9144869446754456 -0.4034857451915741 0.03021428734064102
v -26.171598434448242 148.4700164794922 -8.663169860839844
vt 0.4065999984741211 0.32670003175735474
vn -0.30330419540405273 0.9527633786201477 -0.0157603956758976
v -26.090499877929688 148.4340057373047 -10.05620002746582
vt 0.4077000021934509 0.33469998836517334
vn -0.17945320904254913 0.8281038403511047 -0.5310750007629395
v -18.027799606323242 131.5260009765625 -10.445199966430664
vt 0.44769999384880066 0.3824999928474426
vn -0.708751916885376 -0.0876481831073761 -0.6999917030334473
v -11.860199928283691 136.718994140625 -9.988809585571289
vt 0.45089998841285706 0.32770001888275146
vn 0.7324814200401306 0.604037344455719 -0.31402191519737244
v -18.32619857788086 131.68299865722656 -8.28676986694336
vt 0.44700002670288086 0.3931000232696533
vn -0.9878091812133789 0.11062884330749512 -0.10951858758926392
v -16.642099380493164 133.8769989013672 -9.06132984161377
vt 0.43849998712539673 0.3629000186920166
vn -0.8417372703552246 0.15318089723587036 -0.5177006125450134
v -22.547800064086914 139.1439971923828 -9.460750579833984
vt 0.05469999834895134 0.3544999957084656
vn -0.31670066714286804 -0.42005589604377747 -0.8504431247711182
v -17.574199676513672 138.2469940185547 -9.177889823913574
vt 0.08079999685287476 0.33640003204345703
vn 0.3665868937969208 0.37739378213882446 -0.8504045605659485
v -20.664899826049805 141.25099182128906 -9.405449867248535
vt 0.05309999734163284 0.3372000455856323
vn 0.4872044026851654 0.4119815528392792 -0.7700020670890808
v -25.711597442626953 148.4359893798828 -9.935440063476562
vt 0.41009998321533203 0.33490002155303955
vn 0.41476577520370483 0.8370218873023987 -0.3568805754184723
v -23.88360023498535 146.10398864746094 -9.696430206298828
vt 0.41269999742507935 0.3531000018119812
vn 0.8867922425270081 0.256570041179657 -0.3844102919101715
v -24.08399772644043 145.6479949951172 -8.345569610595703
vt 0.4162999987602234 0.3611000180244446
vn 0.9597650170326233 0.27616727352142334 0.05082206428050995
v -30.159198760986328 145.20098876953125 -9.945719718933105
vt 0.3752000033855438 0.3382999897003174
vn -0.9147428870201111 -0.12998701632022858 -0.38255569338798523
v -25.669898986816406 148.38499450683594 -8.476229667663574
vt 0.41929998993873596 0.3349999785423279
vn 0.5970649123191833 0.8007091283798218 0.048767201602458954
v -23.905899047851562 146.08299255371094 -8.36631965637207
vt 0.41830000281333923 0.35899996757507324
vn 0.9981135129928589 -0.01933801732957363 0.05827033892273903
v -23.905899047851562 146.08299255371094 -8.36631965637207
vt 0.42100003361701965 0.352400004863739
vn 0.9981135129928589 -0.01933801732957363 0.05827033892273903
v 24.75629997253418 108.3290023803711 -3.7776498794555664
vt 0.3700000047683716 0.45649999380111694
vn 0.3055419921875 0.5862573981285095 0.7502974271774292
v 21.39780044555664 109.72199249267578 -4.464339733123779
vt 0.34950000047683716 0.45499998331069946
vn 0.4245827794075012 0.9053522944450378 0.008161413483321667
v -5.050019264221191 124.58899688720703 -9.838150024414062
vt 0.8370000123977661 0.38109999895095825
vn 0.43410608172416687 -0.213918074965477 -0.8750948309898376
v -5.064219951629639 124.0409927368164 -9.83922004699707
vt 0.7714999914169312 0.3726000189781189
vn 0.5149428248405457 0.1558956354856491 -0.8429296612739563
v -0.3641720116138458 118.68899536132812 -9.430990219116211
vt 0.8138999938964844 0.37389999628067017
vn 0.5208331346511841 0.34556955099105835 -0.7805859446525574
v -8.104499816894531 123.968994140625 -9.645919799804688
vt 0.7594000101089478 0.3856000304222107
vn -0.24267126619815826 -0.124264657497406 -0.9621168971061707
v -0.012801999226212502 133.66400146484375 -9.181989669799805
vt 0.8964999914169312 0.36650002002716064
vn -3.8856676837895066e-05 0.573232114315033 -0.8193930387496948
v -0.43924200534820557 115.10299682617188 -9.353280067443848
vt 0.8290999531745911 0.38830000162124634
vn -0.06649953871965408 -0.35700663924217224 -0.9317317008972168
v -8.528980255126953 124.6189956665039 -5.480370044708252
vt 0.8255999684333801 0.34369999170303345
vn -0.8090951442718506 0.31498587131500244 0.49613404273986816
v -0.012801999226212502 129.9550018310547 -9.149889945983887
vt 0.8801999688148499 0.3808000087738037
vn -1.4574714441550896e-05 -0.25981953740119934 -0.9656571745872498
v -8.515279769897461 123.98200225830078 -9.308939933776855
vt 0.7590000629425049 0.38749998807907104
vn -0.826206624507904 -0.3058526813983917 -0.47311365604400635
v -0.012801999226212502 133.9169921875 -5.640689849853516
vt 0.8951999545097351 0.34530001878738403
vn 0.011024282313883305 0.4983983039855957 0.8668780326843262
v -8.555990219116211 124.53799438476562 -9.350930213928223
vt 0.8226000070571899 0.36650002002716064
vn -0.8479140996932983 0.2859610617160797 -0.4463942050933838
v -8.532509803771973 124.00299835205078 -5.446310043334961
vt 0.7663999795913696 0.4106000065803528
vn -0.8228996992111206 -0.43353402614593506 0.3672657907009125
v -0.012801999226212502 133.9169921875 -5.640689849853516
vt 0.7687999606132507 0.1885000467300415
vn 0.011024282313883305 0.4983983039855957 0.8668780326843262
v -8.515279769897461 123.98200225830078 -9.308939933776855
vt 0.8203999996185303 0.3688000440597534
vn -0.826206624507904 -0.3058526813983917 -0.47311365604400635
v -0.012801999226212502 129.16000366210938 -8.26294994354248
vt 0.7728999853134155 0.3307000398635864
vn -2.8151141577836825e-06 -0.5204171538352966 -0.8539121747016907
v -4.579339981079102 124.16099548339844 -8.283900260925293
vt 0.8375999927520752 0.3895000219345093
vn 0.6256619691848755 0.13496145606040955 -0.7683311104774475
v -0.012801999226212502 123.95499420166016 -10.306900024414062
vt 0.79339998960495 0.34869998693466187
vn 4.037712642457336e-06 -0.05259319394826889 -0.9986160397529602
v -5.050019264221191 124.58899688720703 -9.838150024414062
vt 0.7734999656677246 0.37240004539489746
vn 0.43410608172416687 -0.213918074965477 -0.8750948309898376
v -0.012801999226212502 129.16000366210938 -8.26294994354248
vt 0.8772000074386597 0.3874000310897827
vn -2.8151141577836825e-06 -0.5204171538352966 -0.8539121747016907
v -8.16234016418457 124.54399871826172 -9.639169692993164
vt 0.8241999745368958 0.36809998750686646
vn -0.39933866262435913 0.17080843448638916 -0.9007513523101807
v -0.4398289918899536 129.91299438476562 -9.457809448242188
vt 0.8788999915122986 0.379800021648407
vn 0.3745937645435333 -0.22197087109088898 -0.9002267718315125
v -0.36544501781463623 133.6800079345703 -9.285059928894043
vt 0.8956999778747559 0.3655000329017639
vn 0.09936247020959854 0.33640483021736145 -0.9364607334136963
v -8.104499816894531 123.968994140625 -9.645919799804688
vt 0.8220000267028809 0.37060004472732544
vn -0.24267126619815826 -0.124264657497406 -0.9621168971061707
v -0.3557550311088562 133.9669952392578 -8.943079948425293
vt 0.8953999876976013 0.36419999599456787
vn -0.15479083359241486 0.8926680684089661 -0.42330068349838257
v -8.528980255126953 124.6189956665039 -5.480370044708252
vt 0.7627999782562256 0.41040003299713135
vn -0.8090951442718506 0.31498587131500244 0.49613404273986816
v -0.012801999226212502 114.66799926757812 -5.6237592697143555
vt 0.8220000267028809 0.4100000262260437
vn 0.022118091583251953 -0.5285626649856567 0.8486059904098511
v -0.012801999226212502 118.9949951171875 -7.710740089416504
vt 0.8078999519348145 0.3637999892234802
vn -3.0920247809262946e-05 0.6240617036819458 -0.7813751101493835
v -0.012801999226212502 133.81100463867188 -5.801690101623535
vt 0.8964999914169312 0.34619998931884766
vn -4.021567656309344e-05 0.9969146847724915 -0.07849085330963135
v -4.579339981079102 124.16099548339844 -8.283900260925293
vt 0.7770000100135803 0.3637999892234802
vn 0.6256619691848755 0.13496145606040955 -0.7683311104774475
v -24.224699020385742 145.85198974609375 -10.072999954223633
vt 0.40950000286102295 0.3529999852180481
vn 0.5302009582519531 -0.23190179467201233 -0.8155417442321777
v -23.001598358154297 107.39600372314453 -4.431159973144531
vt 0.36319997906684875 0.4661000370979309
vn 0.07424606382846832 -0.9968733787536621 -0.027035800740122795
v -25.669898986816406 148.38499450683594 -8.476229667663574
vt 0.4097999930381775 0.3255000114440918
vn 0.5970649123191833 0.8007091283798218 0.048767201602458954
v -27.083099365234375 142.9290008544922 -8.411829948425293
vt 0.018799999728798866 0.3668000102043152
vn -0.38148626685142517 -0.9222075343132019 0.06325671076774597
v -27.07979965209961 142.94900512695312 -9.47191047668457
vt 0.01769999973475933 0.36059999465942383
vn -0.20428408682346344 -0.9514904618263245 -0.2300734668970108
v -16.760099411010742 133.8369903564453 -7.916880130767822
vt 0.10500000417232513 0.3591000437736511
vn -0.9969440698623657 0.07660927623510361 -0.015283575281500816
v -23.64529800415039 108.80199432373047 -3.715009927749634
vt 0.3617999851703644 0.45799994468688965
vn -0.23319368064403534 0.4431307017803192 0.8655956387519836
v -29.797800064086914 145.47898864746094 -10.2839994430542
vt 0.37849998474121094 0.3386000394821167
vn -0.491244375705719 -0.058193523436784744 -0.8690755367279053
v -27.375 143.0600128173828 -10.06659984588623
vt 0.3840000033378601 0.3579999804496765
vn 0.015027373097836971 -0.6121439933776855 -0.7906034588813782
v -12.016500473022461 136.8820037841797 -7.700009822845459
vt 0.4625999927520752 0.32520002126693726
vn 0.8032013177871704 0.5925005674362183 0.061729129403829575
v -11.694000244140625 136.61099243164062 -9.80801010131836
vt 0.4526999890804291 0.33009999990463257
vn 0.9949834942817688 -0.014090732671320438 -0.0990414023399353
v -20.518699645996094 141.43499755859375 -8.29574966430664
vt 0.05329999700188637 0.32990002632141113
vn 0.7338748574256897 0.6771594882011414 -0.05369038134813309
v -24.08399772644043 145.6479949951172 -8.345569610595703
vt 0.017500000074505806 0.3302000164985657
vn 0.9597650170326233 0.27616727352142334 0.05082206428050995
v 8.506799697875977 124.00299835205078 -5.446310043334961
vt 0.7906000018119812 0.20799994468688965
vn 0.7178992629051208 -0.3625916838645935 0.594262421131134
v 5.024319648742676 124.58899688720703 -9.838239669799805
vt 0.8370000123977661 0.38109999895095825
vn -0.4340916574001312 -0.21397963166236877 -0.8750869631767273
v -0.36544501781463623 133.6800079345703 -9.285059928894043
vt 0.8978999853134155 0.3646000027656555
vn 0.09936247020959854 0.33640483021736145 -0.9364607334136963
v -0.012801999226212502 133.66400146484375 -9.181989669799805
vt 0.8992999792098999 0.36399996280670166
vn -3.8856676837895066e-05 0.573232114315033 -0.8193930387496948
v 8.136640548706055 124.54399871826172 -9.639169692993164
vt 0.8241999745368958 0.36809998750686646
vn 0.39934617280960083 0.17081359028816223 -0.9007471203804016
v -0.012801999226212502 114.66799926757812 -5.6237592697143555
vt 0.8134999871253967 0.19110000133514404
vn 0.022118091583251953 -0.5285626649856567 0.8486059904098511
v 4.553639888763428 124.16099548339844 -8.283900260925293
vt 0.8375999927520752 0.3895000219345093
vn -0.6256622672080994 0.13490904867649078 -0.768339991569519
v -8.532509803771973 124.00299835205078 -5.446310043334961
vt 0.7928000092506409 0.17170000076293945
vn -0.8228996992111206 -0.43353402614593506 0.3672657907009125
v -18.32619857788086 131.68299865722656 -8.28676986694336
vt 0.4366999864578247 0.383899986743927
vn -0.9878091812133789 0.11062884330749512 -0.10951858758926392
v -27.083099365234375 142.9290008544922 -8.411829948425293
vt 0.3798999786376953 0.3668000102043152
vn -0.38148626685142517 -0.9222075343132019 0.06325671076774597
v -22.54619789123535 138.78298950195312 -8.546599388122559
vt 0.05689999833703041 0.36010003089904785
vn -0.6584062576293945 -0.7511076927185059 -0.04835658147931099
v -19.50819969177246 136.13400268554688 -8.366119384765625
vt 0.08219999819993973 0.35839998722076416
vn -0.6504344344139099 -0.758054256439209 0.04783879965543747
v -16.760099411010742 133.8369903564453 -7.916880130767822
vt 0.4327999949455261 0.36399996280670166
vn -0.9969440698623657 0.07660927623510361 -0.015283575281500816
v -24.923999786376953 108.3290023803711 -3.7776498794555664
vt 0.3700000047683716 0.45649999380111694
vn -0.3055466413497925 0.586280882358551 0.7502771615982056
v -21.56549835205078 109.72199249267578 -4.464339733123779
vt 0.34950000047683716 0.45499998331069946
vn -0.4245806932449341 0.9053534269332886 0.00814766250550747
v -16.642099380493164 133.8769989013672 -9.06132984161377
vt 0.10449999570846558 0.3522000312805176
vn -0.8417372703552246 0.15318089723587036 -0.5177006125450134
v -26.718299865722656 142.97898864746094 -9.760350227355957
vt 0.019199999049305916 0.35830003023147583
vn 0.10879771411418915 -0.5154160857200623 -0.8500054478645325
v -14.8572998046875 136.18299865722656 -9.02334976196289
vt 0.10249999910593033 0.3349999785423279
vn -0.5260109305381775 0.7350040674209595 -0.42788010835647583
v 21.32740020751953 109.66799926757812 -3.624379873275757
vt 0.349700003862381 0.4595000147819519
vn 0.1178651824593544 0.21742190420627594 0.9689352512359619
v 23.477699279785156 108.80199432373047 -3.715009927749634
vt 0.3617999851703644 0.45799994468688965
vn 0.23320351541042328 0.4431443214416504 0.8655861616134644
v 22.833999633789062 107.39600372314453 -4.431159973144531
vt 0.36319997906684875 0.4661000370979309
vn -0.07424207776784897 -0.9968737959861755 -0.027036136016249657
v -5.064219951629639 124.0409927368164 -9.83922004699707
vt 0.8345999717712402 0.3831000328063965
vn 0.5149428248405457 0.1558956354856491 -0.8429296612739563
v -8.555990219116211 124.53799438476562 -9.350930213928223
vt 0.8248999714851379 0.36590003967285156
vn -0.8479140996932983 0.2859610617160797 -0.4463942050933838
v -8.555990219116211 124.53799438476562 -9.350930213928223
vt 0.7556999921798706 0.3871999979019165
vn -0.8479140996932983 0.2859610617160797 -0.4463942050933838
v -0.4154580235481262 114.677001953125 -9.061610221862793
vt 0.828499972820282 0.3907000422477722
vn -0.08186192810535431 -0.8543195724487305 -0.5132608413696289
v -0.012801999226212502 115.22099304199219 -9.186009407043457
vt 0.8294000029563904 0.3871000409126282
vn -8.695873111719266e-05 -0.2510249614715576 -0.9679805636405945
v -0.012801999226212502 118.60699462890625 -9.084219932556152
vt 0.8156999945640564 0.37290000915527344
vn -7.612670015078038e-05 0.6803086996078491 -0.7329256534576416
v -0.012801999226212502 114.70500183105469 -8.983799934387207
vt 0.8297999501228333 0.3912000060081482
vn -1.9079136109212413e-05 -0.8307272791862488 -0.5566797256469727
v -0.012801999226212502 133.85400390625 -8.922530174255371
vt 0.8968999981880188 0.3634999990463257
vn -4.270433055353351e-05 0.952193021774292 -0.30549687147140503
v -0.012801999226212502 115.22099304199219 -9.186009407043457
vt 0.8340000510215759 0.3910999894142151
vn -8.695873111719266e-05 -0.2510249614715576 -0.9679805636405945
v 15.508299827575684 112.97898864746094 -4.093400001525879
vt 0.3127000033855438 0.4617000222206116
vn 0.2562798261642456 0.5108468532562256 0.8205828070640564
v 11.047599792480469 115.88400268554688 -4.500849723815918
vt 0.28519999980926514 0.4621000289916992
vn 0.2691805958747864 0.5205636620521545 0.810280978679657
v -22.682199478149414 139.06900024414062 -7.483969688415527
vt 0.0560000017285347 0.3668000102043152
vn -0.42684099078178406 -0.48680275678634644 0.7621217370033264
v -0.553954005241394 124.06299591064453 -5.77869987487793
vt 0.210099995136261 0.46160000562667847
vn 0.1972326785326004 0.4106823801994324 0.890190601348877
v 6.04203987121582 119.3800048828125 -5.146629810333252
vt 0.2541999816894531 0.4621000289916992
vn 0.2860029637813568 0.532942533493042 0.7963506579399109
v -7.649530410766602 129.08999633789062 -6.360179901123047
vt 0.16409999132156372 0.46060001850128174
vn 0.22628185153007507 0.4246223568916321 0.8766369223594666
v 30.01919937133789 145.66000366210938 -7.0218095779418945
vt 0.3780999779701233 0.33649998903274536
vn 0.8470627069473267 0.47293514013290405 0.2425229549407959
v 23.880300521850586 146.2080078125 -7.054790496826172
vt 0.41290000081062317 0.3529999852180481
vn -0.8079684972763062 0.13618846237659454 0.5732709765434265
v 16.592498779296875 133.8369903564453 -7.916880130767822
vt 0.43300002813339233 0.36390000581741333
vn 0.996944785118103 0.07660268992185593 -0.015268978662788868
v 16.521499633789062 134.1529998779297 -7.101579666137695
vt 0.10459999740123749 0.3644000291824341
vn 0.9319416284561157 0.09983018040657043 0.3485953211784363
v 14.70419979095459 136.50799560546875 -7.218539714813232
vt 0.4368000030517578 0.34869998693466187
vn 0.2989555895328522 0.8461498618125916 0.4411981701850891
v 19.378799438476562 136.447998046875 -7.379839897155762
vt 0.08150000125169754 0.3646000027656555
vn 0.4356343746185303 -0.43632611632347107 0.7873005270957947
v 14.70419979095459 136.50799560546875 -7.218539714813232
vt 0.10159999877214432 0.3256000280380249
vn 0.2989555895328522 0.8461498618125916 0.4411981701850891
v 17.544599533081055 138.69900512695312 -7.612969875335693
vt 0.07849999517202377 0.325700044631958
vn -0.45358726382255554 0.5540514588356018 0.6980584263801575
v -27.040699005126953 143.05299377441406 -7.287049770355225
vt 0.01939999870955944 0.3736000061035156
vn 0.02363182231783867 -0.7143752574920654 0.6993635296821594
v -19.546398162841797 136.447998046875 -7.379839897155762
vt 0.08150000125169754 0.3646000027656555
vn -0.4356364905834198 -0.43633341789245605 0.7872952818870544
v -13.505000114440918 133.6669921875 -6.774089813232422
vt 0.12489999830722809 0.45750004053115845
vn 0.8409210443496704 -0.1738375872373581 0.5124765634536743
v -13.505000114440918 133.6669921875 -6.774089813232422
vt 0.46059998869895935 0.3500000238418579
vn 0.8409210443496704 -0.1738375872373581 0.5124765634536743
v -12.469799041748047 136.35899353027344 -5.4911699295043945
vt 0.45159998536109924 0.3306000232696533
vn 0.694431483745575 -0.3785151541233063 0.6119568943977356
v -27.603700637817383 143.00599670410156 -7.030620098114014
vt 0.38089999556541443 0.3589000105857849
vn 0.07350888103246689 -0.578948438167572 0.8120438456535339
v -19.546398162841797 136.447998046875 -7.379839897155762
vt 0.0794999971985817 0.3076000213623047
vn -0.4356364905834198 -0.43633341789245605 0.7872952818870544
v -24.177898406982422 145.62899780273438 -7.291749954223633
vt 0.017799999564886093 0.32350003719329834
vn 0.7514616847038269 -0.19555319845676422 0.6301303505897522
v -24.177898406982422 145.62899780273438 -7.291749954223633
vt 0.4104999899864197 0.35620003938674927
vn 0.7514616847038269 -0.19555319845676422 0.6301303505897522
v -26.187599182128906 148.47500610351562 -6.953100204467773
vt 0.4077000021934509 0.33469998836517334
vn -0.09716933220624924 0.8580732345581055 0.5042504668235779
v -25.814498901367188 148.23399353027344 -6.806290149688721
vt 0.41009998321533203 0.33490002155303955
vn 0.3085010051727295 0.43861404061317444 0.844064474105835
v -30.186798095703125 145.66000366210938 -7.0218095779418945
vt 0.3780999779701233 0.33649998903274536
vn -0.8470951914787292 0.4728566110134125 0.24256198108196259
v 18.804800033569336 110.99800109863281 -3.7634599208831787
vt 0.3334999978542328 0.4609000086784363
vn 0.22834935784339905 0.48027077317237854 0.8468745946884155
v -16.689098358154297 134.1529998779297 -7.101579666137695
vt 0.10459999740123749 0.3644000291824341
vn -0.9319459199905396 0.09983950853347778 0.3485811948776245
v -16.760099411010742 133.8369903564453 -7.916880130767822
vt 0.43300002813339233 0.36390000581741333
vn -0.9969440698623657 0.07660927623510361 -0.015283575281500816
v -16.689098358154297 134.1529998779297 -7.101579666137695
vt 0.43849998712539673 0.3629000186920166
vn -0.9319459199905396 0.09983950853347778 0.3485811948776245
v -16.89349937438965 130.48098754882812 -6.041230201721191
vt 0.4583999812602997 0.3831000328063965
vn -0.14826837182044983 -0.4116869568824768 0.8991832137107849
v -16.224300384521484 130.6439971923828 -6.608219623565674
vt 0.460099995136261 0.3801000118255615
vn 0.5865303874015808 -0.7332649230957031 0.3439542353153229
v -16.871898651123047 130.01699829101562 -8.148280143737793
vt 0.4583999812602997 0.3931000232696533
vn -0.24000857770442963 -0.967540979385376 0.07912339270114899
v 25.64689826965332 148.23399353027344 -6.806290149688721
vt 0.41009998321533203 0.33490002155303955
vn -0.3084946274757385 0.4386202096939087 0.8440635204315186
v 24.01020050048828 145.62899780273438 -7.291749954223633
vt 0.4104999899864197 0.35620003938674927
vn -0.7514971494674683 -0.19556935131549835 0.6300830245018005
v 16.521499633789062 134.1529998779297 -7.101579666137695
vt 0.10239999741315842 0.30790001153945923
vn 0.9319416284561157 0.09983018040657043 0.3485953211784363
v 22.51449966430664 139.06900024414062 -7.483969688415527
vt 0.0560000017285347 0.3668000102043152
vn 0.42683175206184387 -0.48679080605506897 0.7621345520019531
v 26.87310028076172 143.05299377441406 -7.287049770355225
vt 0.01939999870955944 0.3736000061035156
vn -0.023656796663999557 -0.7143899202346802 0.6993477940559387
v -15.708699226379395 113.08099365234375 -5.24899959564209
vt 0.31369999051094055 0.45649999380111694
vn -0.5326869487762451 0.8463106751441956 -0.0017298365710303187
v -24.748899459838867 107.447998046875 -4.264579772949219
vt 0.3707999885082245 0.4609999656677246
vn -0.09626192599534988 -0.9944353699684143 -0.042804498225450516
v -26.29949951171875 107.81500244140625 -4.124720096588135
vt 0.376800000667572 0.4553000330924988
vn -0.7577399015426636 0.6473487615585327 -0.08227849751710892
v 7.294830322265625 129.2550048828125 -7.312009811401367
vt 0.16459999978542328 0.4553000330924988
vn -0.6038325428962708 0.7963077425956726 0.035780712962150574
v 0.38591501116752625 123.98001098632812 -7.761840343475342
vt 0.210099995136261 0.46160000562667847
vn -0.3504134714603424 0.38117799162864685 -0.8555195331573486
v 26.87310028076172 143.05299377441406 -7.287049770355225
vt 0.018799999728798866 0.3004000186920166
vn -0.023656796663999557 -0.7143899202346802 0.6993477940559387
v 16.725900650024414 130.48098754882812 -6.041230201721191
vt 0.4583999812602997 0.3831000328063965
vn 0.14827707409858704 -0.4116825461387634 0.8991837501525879
v 16.704299926757812 130.01699829101562 -8.148280143737793
vt 0.4583999812602997 0.3931000232696533
vn 0.2400178611278534 -0.9675379395484924 0.07913117110729218
v 13.11989974975586 133.89898681640625 -7.898469924926758
vt 0.12529999017715454 0.4519999623298645
vn -0.9304743409156799 0.3620884418487549 0.05576305463910103
v -23.001598358154297 107.39600372314453 -4.431159973144531
vt 0.3630000054836273 0.465999960899353
vn 0.07424606382846832 -0.9968733787536621 -0.027035800740122795
v 0.32322999835014343 124.13199615478516 -6.789460182189941
vt 0.2102999985218048 0.45660001039505005
vn -0.5836726427078247 0.8117028474807739 0.02155851386487484
v -11.32390022277832 115.96000671386719 -5.5921502113342285
vt 0.2858999967575073 0.4562000036239624
vn -0.5602250695228577 0.8281964659690857 -0.01544090174138546
v -6.237469673156738 119.45499420166016 -6.080450057983398
vt 0.2531000077724457 0.4562000036239624
vn -0.5759573578834534 0.8172339797019958 -0.02004207670688629
v -23.68269920349121 108.73799133300781 -4.914370059967041
vt 0.3617999851703644 0.45799994468688965
vn -0.37698036432266235 0.4323427677154541 -0.8191248774528503
v -21.571998596191406 109.64399719238281 -5.3609700202941895
vt 0.3495999872684479 0.459600031375885
vn -0.37552160024642944 0.42605674266815186 -0.8230789303779602
v -20.35209846496582 107.80599975585938 -4.61624002456665
vt 0.3499999940395355 0.471500039100647
vn 0.25780874490737915 -0.9661211967468262 -0.01202672254294157
v 13.592299461364746 138.02899169921875 -6.00462007522583
vt 0.44039997458457947 0.32910001277923584
vn 0.36662858724594116 0.8084779977798462 0.4603767693042755
v 12.107600212097168 136.95700073242188 -5.63210916519165
vt 0.45089998841285706 0.32770001888275146
vn -0.6223562359809875 0.28216487169265747 0.7301066517829895
v 16.521499633789062 134.1529998779297 -7.101579666137695
vt 0.43849998712539673 0.3629000186920166
vn 0.9319416284561157 0.09983018040657043 0.3485953211784363
v 29.904499053955078 145.28799438476562 -6.8304595947265625
vt 0.3752000033855438 0.3382999897003174
vn 0.6451005935668945 -0.26254698634147644 0.717575192451477
v 0.38631799817085266 124.06299591064453 -5.77869987487793
vt 0.210099995136261 0.46160000562667847
vn -0.19723258912563324 0.41068241000175476 0.890190601348877
v 13.337400436401367 133.6669921875 -6.774089813232422
vt 0.46059998869895935 0.3500000238418579
vn -0.8409160375595093 -0.17383667826652527 0.5124852657318115
v 12.302199363708496 136.35899353027344 -5.4911699295043945
vt 0.45159998536109924 0.3306000232696533
vn -0.694431483745575 -0.3785151541233063 0.6119568943977356
v -18.97239875793457 110.99800109863281 -3.7634599208831787
vt 0.3334999978542328 0.4609000086784363
vn -0.22834469377994537 0.4802711606025696 0.8468756675720215
v 13.337400436401367 133.6669921875 -6.774089813232422
vt 0.12489999830722809 0.45750004053115845
vn -0.8409160375595093 -0.17383667826652527 0.5124852657318115
v 16.056699752807617 130.6439971923828 -6.608219623565674
vt 0.460099995136261 0.3801000118255615
vn -0.586523711681366 -0.7332656979560852 0.3439640998840332
v 7.481889724731445 129.08999633789062 -6.360179901123047
vt 0.16409999132156372 0.46060001850128174
vn -0.2262800633907318 0.42462170124053955 0.8766377568244934
v -15.676000595092773 112.97898864746094 -4.093400001525879
vt 0.3127000033855438 0.4617000222206116
vn -0.2562870979309082 0.5108559131622314 0.8205748796463013
v -11.21519947052002 115.88400268554688 -4.500849723815918
vt 0.28519999980926514 0.4621000289916992
vn -0.26918357610702515 0.5205684304237366 0.8102768659591675
v -13.16189956665039 110.48600006103516 -4.991099834442139
vt 0.31039997935295105 0.4805999994277954
vn 0.4802872836589813 -0.8741688132286072 0.07178536802530289
v -14.863100051879883 131.73699951171875 -8.034810066223145
vt 0.12449999898672104 0.4718000292778015
vn 0.469719260931015 -0.8775117993354797 0.09662767499685287
v -11.887100219726562 136.36000061035156 -10.18340015411377
vt 0.45170000195503235 0.3319000005722046
vn 0.8120493292808533 -0.24506959319114685 -0.529638409614563
v -13.22599983215332 133.81300354003906 -8.989290237426758
vt 0.12489999830722809 0.45750004053115845
vn 0.8929686546325684 -0.3964778184890747 -0.21310149133205414
v -16.871898651123047 130.01699829101562 -8.148280143737793
vt 0.4693000018596649 0.38280004262924194
vn -0.24000857770442963 -0.967540979385376 0.07912339270114899
v -9.274909973144531 126.57799530029297 -7.35830020904541
vt 0.16459999978542328 0.47680002450942993
vn -0.6340124011039734 -0.7732625007629395 0.009665207006037235
v 6.238080024719238 119.18799591064453 -7.199649810791016
vt 0.2541999816894531 0.4621000289916992
vn 0.3537312150001526 0.3967816233634949 -0.8470174670219421
v 3.450889825820923 116.52699279785156 -5.872960090637207
vt 0.25049999356269836 0.48250001668930054
vn -0.5887860655784607 -0.8045175671577454 0.07798922061920166
v 8.459330558776855 113.125 -5.36860990524292
vt 0.2827000021934509 0.48250001668930054
vn -0.5608450770378113 -0.8241929411888123 0.0784779042005539
v 15.392799377441406 113.04399108886719 -6.28109073638916
vt 0.3127000033855438 0.4617000222206116
vn 0.3572835624217987 0.3915996849536896 -0.8479375243186951
v 17.068099975585938 108.70800018310547 -4.761390209197998
vt 0.3335999846458435 0.4765000343322754
vn -0.3846638798713684 -0.9223256707191467 0.0367274284362793
v 22.833999633789062 107.39600372314453 -4.431159973144531
vt 0.3630000054836273 0.465999960899353
vn -0.07424207776784897 -0.9968737959861755 -0.027036136016249657
v 18.741600036621094 111.04499816894531 -5.815699577331543
vt 0.3334999978542328 0.4609000086784363
vn 0.3662918508052826 0.4048073887825012 -0.8378313779830933
v 23.515100479125977 108.73799133300781 -4.914370059967041
vt 0.3617999851703644 0.45799994468688965
vn 0.3769884705543518 0.432365357875824 -0.8191091418266296
v 24.581298828125 107.447998046875 -4.264579772949219
vt 0.3707999885082245 0.4609999656677246
vn 0.09626146405935287 -0.9944352507591248 -0.042804405093193054
v 11.15630054473877 115.96000671386719 -5.5921502113342285
vt 0.2858999967575073 0.4562000036239624
vn 0.5602256655693054 0.8281956315040588 -0.015462503768503666
v -7.462470054626465 129.2550048828125 -7.312009811401367
vt 0.16459999978542328 0.4553000330924988
vn 0.603833794593811 0.7963069081306458 0.03578098118305206
v 15.541099548339844 113.08099365234375 -5.24899959564209
vt 0.31369999051094055 0.45649999380111694
vn 0.5326893925666809 0.8463090658187866 -0.0017411215230822563
v -0.490867018699646 124.13199615478516 -6.789460182189941
vt 0.2102999985218048 0.45660001039505005
vn 0.5836725831031799 0.8117028474807739 0.021558640524744987
v 18.819299697875977 111.09799194335938 -4.837440013885498
vt 0.33409997820854187 0.45590001344680786
vn 0.49354633688926697 0.8697130680084229 0.0033336873166263103
v 21.39780044555664 109.72199249267578 -4.464339733123779
vt 0.349700003862381 0.45499998331069946
vn 0.4245827794075012 0.9053522944450378 0.008161413483321667
v -14.87179946899414 136.50799560546875 -7.218539714813232
vt 0.4368000030517578 0.34869998693466187
vn -0.2989567816257477 0.8461421728134155 0.44121211767196655
v -16.072399139404297 130.15399169921875 -9.946439743041992
vt 0.460099995136261 0.3801000118255615
vn 0.5998824834823608 -0.7907774448394775 -0.12170471251010895
v -7.554389953613281 129.06199645996094 -8.344289779663086
vt 0.16409999132156372 0.46060001850128174
vn 0.3725792467594147 0.3732535243034363 -0.8496272563934326
v -14.863100051879883 131.73699951171875 -8.034810066223145
vt 0.4672999978065491 0.36239999532699585
vn 0.469719260931015 -0.8775117993354797 0.09662767499685287
v -0.5535510182380676 123.98001098632812 -7.761840343475342
vt 0.210099995136261 0.46160000562667847
vn 0.35041356086730957 0.3811781406402588 -0.8555195331573486
v 11.064399719238281 115.88400268554688 -6.745019912719727
vt 0.28519999980926514 0.4621000289916992
vn 0.2322746217250824 0.19653917849063873 -0.9525863528251648
v 20.18440055847168 107.80599975585938 -4.61624002456665
vt 0.3499999940395355 0.471500039100647
vn -0.25780948996543884 -0.9661208987236023 -0.012026358395814896
v 24.9635009765625 108.23399353027344 -4.510149955749512
vt 0.3700000047683716 0.45649999380111694
vn 0.3889494836330414 0.5400969386100769 -0.7463334798812866
v -13.287500381469727 133.89898681640625 -7.898469924926758
vt 0.12529999017715454 0.4519999623298645
vn 0.930475115776062 0.3620864152908325 0.05576315522193909
v 6.069829940795898 119.45499420166016 -6.080450057983398
vt 0.2531000077724457 0.4562000036239624
vn 0.5759564638137817 0.8172346353530884 -0.02004196122288704
v -14.87179946899414 136.50799560546875 -7.218539714813232
vt 0.10159999877214432 0.3256000280380249
vn -0.2989567816257477 0.8461421728134155 0.44121211767196655
v -3.6185197830200195 116.52699279785156 -5.872960090637207
vt 0.25049999356269836 0.48250001668930054
vn 0.5887861847877502 -0.8045175075531006 0.07798891514539719
v -11.232099533081055 115.88400268554688 -6.745019912719727
vt 0.28519999980926514 0.4621000289916992
vn -0.2322806864976883 0.19655025005340576 -0.9525826573371887
v -17.23579978942871 108.70800018310547 -4.761390209197998
vt 0.3335999846458435 0.4765000343322754
vn 0.3846668004989624 -0.9223246574401855 0.03672518581151962
v -21.56549835205078 109.72199249267578 -4.464339733123779
vt 0.349700003862381 0.45499998331069946
vn -0.4245806932449341 0.9053534269332886 0.00814766250550747
v -25.113399505615234 108.3689956665039 -4.1902899742126465
vt 0.3698999881744385 0.4546999931335449
vn -0.36795511841773987 0.9283290505409241 -0.05305042490363121
v 18.341699600219727 131.67498779296875 -6.53971004486084
vt 0.44769999384880066 0.3824999928474426
vn 0.972986102104187 0.10153022408485413 0.20733913779258728
v -18.909299850463867 111.04499816894531 -5.815699577331543
vt 0.3334999978542328 0.4609000086784363
vn -0.36630484461784363 0.404824435710907 -0.837817370891571
v 13.05840015411377 133.81300354003906 -8.989290237426758
vt 0.12489999830722809 0.45750004053115845
vn -0.8929594159126282 -0.3964860439300537 -0.21312516927719116
v -25.131099700927734 108.23399353027344 -4.510149955749512
vt 0.3700000047683716 0.45649999380111694
vn -0.3889419436454773 0.5400897264480591 -0.7463424801826477
v 26.020002365112305 148.47500610351562 -6.953100204467773
vt 0.4077000021934509 0.33469998836517334
vn 0.09717008471488953 0.8580729961395264 0.5042504072189331
v 24.01020050048828 145.62899780273438 -7.291749954223633
vt 0.017799999564886093 0.32350003719329834
vn -0.7514971494674683 -0.19556935131549835 0.6300830245018005
v 19.378799438476562 136.447998046875 -7.379839897155762
vt 0.0794999971985817 0.3076000213623047
vn 0.4356343746185303 -0.43632611632347107 0.7873005270957947
v 22.51449966430664 139.06900024414062 -7.483969688415527
vt 0.0551999993622303 0.30560004711151123
vn 0.42683175206184387 -0.48679080605506897 0.7621345520019531
v -24.04800033569336 146.2080078125 -7.054790496826172
vt 0.41290000081062317 0.3529999852180481
vn 0.8079533576965332 0.13617275655269623 0.5732961297035217
v -27.040699005126953 143.05299377441406 -7.287049770355225
vt 0.018799999728798866 0.3004000186920166
vn 0.02363182231783867 -0.7143752574920654 0.6993635296821594
v -27.040699005126953 143.05299377441406 -7.287049770355225
vt 0.38359999656677246 0.3615000247955322
vn 0.02363182231783867 -0.7143752574920654 0.6993635296821594
v -30.072099685668945 145.28799438476562 -6.8304595947265625
vt 0.3752000033855438 0.3382999897003174
vn -0.6451066136360168 -0.26253849267959595 0.717572808265686
v -18.5093994140625 131.67498779296875 -6.53971004486084
vt 0.44769999384880066 0.3824999928474426
vn -0.9729923605918884 0.10153581947088242 0.20730705559253693
v -16.689098358154297 134.1529998779297 -7.101579666137695
vt 0.10239999741315842 0.30790001153945923
vn -0.9319459199905396 0.09983950853347778 0.3485811948776245
v -22.682199478149414 139.06900024414062 -7.483969688415527
vt 0.0551999993622303 0.30560004711151123
vn -0.42684099078178406 -0.48680275678634644 0.7621217370033264
v -20.717098236083984 141.62799072265625 -7.587230205535889
vt 0.051500000059604645 0.32510000467300415
vn 0.5334280729293823 0.4559597373008728 0.7124290466308594
v 27.435998916625977 143.00599670410156 -7.030620098114014
vt 0.38089999556541443 0.3589000105857849
vn -0.07352747768163681 -0.5789650678634644 0.8120301961898804
v -18.986900329589844 111.09799194335938 -4.837440013885498
vt 0.33409997820854187 0.45590001344680786
vn -0.493545800447464 0.8697133660316467 0.0033343934919685125
v -23.678199768066406 108.83000183105469 -4.303930282592773
vt 0.3617999851703644 0.454800009727478
vn -0.3531424105167389 0.9343941807746887 -0.04688047990202904
v 20.549400329589844 141.62799072265625 -7.587230205535889
vt 0.051500000059604645 0.32510000467300415
vn -0.5334349870681763 0.4559663236141205 0.7124196887016296
v 26.87310028076172 143.05299377441406 -7.287049770355225
vt 0.38359999656677246 0.3615000247955322
vn -0.023656796663999557 -0.7143899202346802 0.6993477940559387
v -6.405720233917236 119.18799591064453 -7.199649810791016
vt 0.2541999816894531 0.4621000289916992
vn -0.3537350296974182 0.39678823947906494 -0.8470128178596497
v 2.6040501594543457 121.20499420166016 -6.543299674987793
vt 0.20919999480247498 0.4807000160217285
vn 0.6222713589668274 -0.7804661989212036 0.060421086847782135
v -15.56049919128418 113.04399108886719 -6.28109073638916
vt 0.3127000033855438 0.4617000222206116
vn -0.35729458928108215 0.39161843061447144 -0.8479242324829102
v -8.626959800720215 113.125 -5.36860990524292
vt 0.2827000021934509 0.48250001668930054
vn 0.5608430504798889 -0.8241943717002869 0.07847680896520615
v -6.209681034088135 119.3800048828125 -5.146629810333252
vt 0.2541999816894531 0.4621000289916992
vn -0.28600433468818665 0.5329418778419495 0.7963507175445557
v -13.287500381469727 133.89898681640625 -7.898469924926758
vt 0.4660000205039978 0.34869998693466187
vn 0.930475115776062 0.3620864152908325 0.05576315522193909
v -13.22599983215332 133.81300354003906 -8.989290237426758
vt 0.46059998869895935 0.3500000238418579
vn 0.8929686546325684 -0.3964778184890747 -0.21310149133205414
v -16.3656005859375 130.2119903564453 -8.03611946105957
vt 0.46959999203681946 0.3799999952316284
vn 0.528022825717926 -0.835100531578064 0.15426816046237946
v -2.7716898918151855 121.20499420166016 -6.543299674987793
vt 0.20919999480247498 0.4807000160217285
vn -0.6222711801528931 -0.7804664969444275 0.06042124703526497
v 12.994199752807617 110.48600006103516 -4.991099834442139
vt 0.31039997935295105 0.4805999994277954
vn -0.48029085993766785 -0.8741666078567505 0.07178590446710587
v 21.404399871826172 109.64399719238281 -5.3609700202941895
vt 0.3495999872684479 0.459600031375885
vn 0.3755244314670563 0.4260633885860443 -0.8230743408203125
v 26.131799697875977 107.81500244140625 -4.124720096588135
vt 0.376800000667572 0.4553000330924988
vn 0.7577807307243347 0.6473115086555481 -0.0821959599852562
v -17.712200164794922 138.69900512695312 -7.612969875335693
vt 0.07849999517202377 0.325700044631958
vn 0.4535817801952362 0.5540568828582764 0.6980577111244202
v 23.510498046875 108.83000183105469 -4.303930282592773
vt 0.3617999851703644 0.454800009727478
vn 0.3531370759010315 0.9343967437744141 -0.04687205329537392
v -13.759899139404297 138.02899169921875 -6.00462007522583
vt 0.44039997458457947 0.32910001277923584
vn -0.3666335344314575 0.8084819912910461 0.46036580204963684
v -12.275199890136719 136.95700073242188 -5.63210916519165
vt 0.45089998841285706 0.32770001888275146
vn 0.6223563551902771 0.2821655571460724 0.7301062941551208
v 24.94580078125 108.3689956665039 -4.1902899742126465
vt 0.3698999881744385 0.4546999931335449
vn 0.3679591417312622 0.9283297061920166 -0.053009845316410065
v 17.406599044799805 138.2469940185547 -9.177889823913574
vt 0.08079999685287476 0.33640003204345703
vn -0.3665834665298462 0.37738868594169617 -0.8504082560539246
v 19.26580047607422 136.28900146484375 -9.235349655151367
vt 0.0811999961733818 0.3529999852180481
vn 0.46152767539024353 -0.5733839273452759 -0.6769217252731323
v 30.059499740600586 145.56900024414062 -8.484939575195312
vt 0.37529999017715454 0.32840001583099365
vn 0.8808969855308533 0.4708806574344635 -0.0478743351995945
v 29.819400787353516 145.7239990234375 -9.925950050354004
vt 0.3780999779701233 0.33649998903274536
vn 0.6672860383987427 0.6022898554801941 -0.4381510019302368
v 20.35099983215332 141.43499755859375 -8.29574966430664
vt 0.05329999700188637 0.32990002632141113
vn -0.7338758111000061 0.6771583557128906 -0.05369085818529129
v 14.689699172973633 136.18299865722656 -9.02334976196289
vt 0.4368000030517578 0.34869998693466187
vn 0.5260151624679565 0.7350105047225952 -0.4278640151023865
v 11.848898887634277 136.8820037841797 -7.700009822845459
vt 0.44829997420310974 0.3167000412940979
vn -0.8032011389732361 0.5924993753433228 0.061744846403598785
v 13.430099487304688 138.12899780273438 -7.971710205078125
vt 0.4382999837398529 0.319100022315979
vn 0.45821818709373474 0.8862232565879822 -0.06814941018819809
v 26.003999710083008 148.4700164794922 -8.663169860839844
vt 0.4065999984741211 0.32670003175735474
vn 0.30330637097358704 0.9527626037597656 -0.015765264630317688
v 25.502300262451172 148.38499450683594 -8.476229667663574
vt 0.4097999930381775 0.3255000114440918
vn -0.5970597267150879 0.800712525844574 0.04877687990665436
v 30.09119987487793 145.32598876953125 -8.426309585571289
vt 0.37359997630119324 0.3285999894142151
vn 0.9145340323448181 -0.40337979793548584 0.030203238129615784
v 29.99159812927246 145.20098876953125 -9.945719718933105
vt 0.3752000033855438 0.3382999897003174
vn 0.91475510597229 -0.1298951357603073 -0.38255757093429565
v 23.885400772094727 145.5749969482422 -9.581329345703125
vt 0.018199998885393143 0.3361000418663025
vn -0.910557210445404 -0.06958311796188354 -0.4074845314025879
v 23.885400772094727 145.5749969482422 -9.581329345703125
vt 0.4104999899864197 0.35620003938674927
vn -0.910557210445404 -0.06958311796188354 -0.4074845314025879
v 20.49720001220703 141.25099182128906 -9.405449867248535
vt 0.05309999734163284 0.3372000455856323
vn -0.48720744252204895 0.41197940707206726 -0.770001232624054
v 26.550697326660156 142.97898864746094 -9.760350227355957
vt 0.019199999049305916 0.35830003023147583
vn -0.10881272703409195 -0.5154377818107605 -0.8499902486801147
v 7.386750221252441 129.06199645996094 -8.344289779663086
vt 0.16409999132156372 0.46060001850128174
vn -0.37257733941078186 0.3732539713382721 -0.8496279716491699
v 9.107270240783691 126.57799530029297 -7.35830020904541
vt 0.16459999978542328 0.47680002450942993
vn 0.6340139508247375 -0.7732612490653992 0.009665003977715969
v 14.569999694824219 136.47698974609375 -7.960330009460449
vt 0.43129998445510864 0.3476000428199768
vn -0.04213607683777809 0.978428065776825 -0.20224504172801971
v 16.197999954223633 130.2119903564453 -8.03611946105957
vt 0.46959999203681946 0.3799999952316284
vn -0.5280066728591919 -0.8351081013679504 0.15428298711776733
v 13.430099487304688 138.12899780273438 -7.971710205078125
vt 0.42980000376701355 0.329800009727478
vn 0.45821818709373474 0.8862232565879822 -0.06814941018819809
v 14.69540023803711 131.73699951171875 -8.034810066223145
vt 0.4672999978065491 0.36239999532699585
vn -0.46970587968826294 -0.8775171637535095 0.09664332121610641
v 27.40959930419922 142.8629913330078 -8.31190013885498
vt 0.37700000405311584 0.36570000648498535
vn 0.22725725173950195 -0.9721240401268005 0.05769703909754753
v 26.91550064086914 142.9290008544922 -8.411829948425293
vt 0.3798999786376953 0.3668000102043152
vn 0.38147294521331787 -0.9222120642662048 0.06327065080404282
v 11.692500114440918 136.718994140625 -9.988809585571289
vt 0.45089998841285706 0.32770001888275146
vn -0.7324696779251099 0.6040005683898926 -0.3141202926635742
v 11.876899719238281 136.70399475097656 -10.316200256347656
vt 0.4503999948501587 0.3312000036239624
vn -0.40590789914131165 0.19654925167560577 -0.8925285935401917
v 17.434499740600586 138.64500427246094 -8.141690254211426
vt 0.07900000363588333 0.3294000029563904
vn -0.6508350372314453 0.7537743449211121 -0.09076303988695145
v 14.69540023803711 131.73699951171875 -8.034810066223145
vt 0.12449999898672104 0.4718000292778015
vn -0.46970587968826294 -0.8775171637535095 0.09664332121610641
v 22.38010025024414 139.1439971923828 -9.460750579833984
vt 0.05469999834895134 0.3544999957084656
vn 0.31668880581855774 -0.4200439453125 -0.8504535555839539
v 29.630199432373047 145.47898864746094 -10.2839994430542
vt 0.37849998474121094 0.3386000394821167
vn 0.4912259578704834 -0.05818779021501541 -0.8690862655639648
v 14.569999694824219 136.47698974609375 -7.960330009460449
vt 0.10189999639987946 0.32920002937316895
vn -0.04213607683777809 0.978428065776825 -0.20224504172801971
v 23.916399002075195 145.6479949951172 -8.345569610595703
vt 0.017500000074505806 0.3302000164985657
vn -0.9597656726837158 0.27617147564888 0.05078382417559624
v 11.848898887634277 136.8820037841797 -7.700009822845459
vt 0.4625999927520752 0.32520002126693726
vn -0.8032011389732361 0.5924993753433228 0.061744846403598785
v 13.290900230407715 137.96499633789062 -10.051499366760254
vt 0.44039997458457947 0.32910001277923584
vn 0.14462991058826447 0.918144941329956 -0.36890682578086853
v 11.954099655151367 136.3419952392578 -7.689729690551758
vt 0.46320000290870667 0.3278999924659729
vn -0.9307941198348999 -0.3424398899078369 0.12789523601531982
v 30.09119987487793 145.32598876953125 -8.426309585571289
vt 0.3660000264644623 0.3409000039100647
vn 0.9145340323448181 -0.40337979793548584 0.030203238129615784
v 25.92279815673828 148.4340057373047 -10.05620002746582
vt 0.4077000021934509 0.33469998836517334
vn 0.17945273220539093 0.8280981183052063 -0.5310840606689453
v 26.91550064086914 142.9290008544922 -8.411829948425293
vt 0.018799999728798866 0.3668000102043152
vn 0.38147294521331787 -0.9222120642662048 0.06327065080404282
v 19.340599060058594 136.13400268554688 -8.366119384765625
vt 0.08219999819993973 0.35839998722076416
vn 0.6504343748092651 -0.7580544352531433 0.047838788479566574
v 16.592498779296875 133.8369903564453 -7.916880130767822
vt 0.10500000417232513 0.3591000437736511
vn 0.996944785118103 0.07660268992185593 -0.015268978662788868
v 17.860198974609375 131.5260009765625 -10.445199966430664
vt 0.44769999384880066 0.3824999928474426
vn 0.7087519764900208 -0.0876481905579567 -0.699991762638092
v 16.704299926757812 130.01699829101562 -8.148280143737793
vt 0.4693000018596649 0.38280004262924194
vn 0.2400178611278534 -0.9675379395484924 0.07913117110729218
v 27.207298278808594 143.0600128173828 -10.06659984588623
vt 0.3840000033378601 0.3579999804496765
vn -0.015042765997350216 -0.6121459007263184 -0.7906017303466797
v 26.550697326660156 142.97898864746094 -9.760350227355957
vt 0.3868999779224396 0.3611000180244446
vn -0.10881272703409195 -0.5154377818107605 -0.8499902486801147
v 23.916399002075195 145.6479949951172 -8.345569610595703
vt 0.4162999987602234 0.3611000180244446
vn -0.9597656726837158 0.27617147564888 0.05078382417559624
v 25.543899536132812 148.4359893798828 -9.935440063476562
vt 0.41009998321533203 0.33490002155303955
vn -0.4147610068321228 0.8370166420936584 -0.3568985164165497
v 23.738298416137695 146.08299255371094 -8.36631965637207
vt 0.41830000281333923 0.35899996757507324
vn -0.9981140494346619 -0.019364632666110992 0.05825391411781311
v 23.715898513793945 146.10398864746094 -9.696430206298828
vt 0.41269999742507935 0.3531000018119812
vn -0.8868141770362854 0.2565199136734009 -0.38439324498176575
v 18.158599853515625 131.68299865722656 -8.28676986694336
vt 0.44700002670288086 0.3931000232696533
vn 0.9878117442131042 0.11062806844711304 -0.10949622839689255
v 16.704299926757812 130.01699829101562 -8.148280143737793
vt 0.45819997787475586 0.3931000232696533
vn 0.2400178611278534 -0.9675379395484924 0.07913117110729218
v 16.537799835205078 129.99899291992188 -10.192699432373047
vt 0.4583999812602997 0.3831000328063965
vn 0.13198235630989075 -0.910218358039856 -0.39253413677215576
v 16.474498748779297 133.8769989013672 -9.06132984161377
vt 0.43849998712539673 0.3629000186920166
vn 0.8417374491691589 0.15318092703819275 -0.5177003145217896
v 25.502300262451172 148.38499450683594 -8.476229667663574
vt 0.41929998993873596 0.3349999785423279
vn -0.5970597267150879 0.800712525844574 0.04877687990665436
v 26.912200927734375 142.94900512695312 -9.47191047668457
vt 0.38359999656677246 0.3615000247955322
vn 0.20427651703357697 -0.9514906406402588 -0.23007987439632416
v 16.474498748779297 133.8769989013672 -9.06132984161377
vt 0.10449999570846558 0.3522000312805176
vn 0.8417374491691589 0.15318092703819275 -0.5177003145217896
v 24.05699920654297 145.85198974609375 -10.072999954223633
vt 0.40950000286102295 0.3529999852180481
vn -0.5302237272262573 -0.23195132613182068 -0.8155128955841064
v 14.689699172973633 136.18299865722656 -9.02334976196289
vt 0.10249999910593033 0.3349999785423279
vn 0.5260151624679565 0.7350105047225952 -0.4278640151023865
v 11.719499588012695 136.36000061035156 -10.18340015411377
vt 0.45170000195503235 0.3319000005722046
vn -0.811980128288269 -0.24511417746543884 -0.5297238826751709
v 13.05840015411377 133.81300354003906 -8.989290237426758
vt 0.46059998869895935 0.3500000238418579
vn -0.8929594159126282 -0.3964860439300537 -0.21312516927719116
v 16.141799926757812 130.2100067138672 -10.374399185180664
vt 0.45819997787475586 0.3808000087738037
vn -0.2784132659435272 -0.46036452054977417 -0.8429416418075562
v 13.11989974975586 133.89898681640625 -7.898469924926758
vt 0.4660000205039978 0.34869998693466187
vn -0.9304743409156799 0.3620884418487549 0.05576305463910103
v 15.904699325561523 130.15399169921875 -9.946439743041992
vt 0.460099995136261 0.3801000118255615
vn -0.5998719930648804 -0.7907817363739014 -0.12172815948724747
v 23.738298416137695 146.08299255371094 -8.36631965637207
vt 0.42100003361701965 0.352400004863739
vn -0.9981140494346619 -0.019364632666110992 0.05825391411781311
v 27.463497161865234 142.85000610351562 -9.608349800109863
vt 0.38089999556541443 0.3589000105857849
vn 0.3623773455619812 -0.8770169615745544 -0.31547409296035767
v 11.526299476623535 136.61099243164062 -9.80801010131836
vt 0.4526999890804291 0.33009999990463257
vn -0.9949787259101868 -0.014145626686513424 -0.0990811362862587
v 18.158599853515625 131.68299865722656 -8.28676986694336
vt 0.4366999864578247 0.383899986743927
vn 0.9878117442131042 0.11062806844711304 -0.10949622839689255
v 16.592498779296875 133.8369903564453 -7.916880130767822
vt 0.4327999949455261 0.36399996280670166
vn 0.996944785118103 0.07660268992185593 -0.015268978662788868
v 27.40959930419922 142.8629913330078 -8.31190013885498
vt 0.3734000027179718 0.36160004138946533
vn 0.22725725173950195 -0.9721240401268005 0.05769703909754753
v 26.912200927734375 142.94900512695312 -9.47191047668457
vt 0.01769999973475933 0.36059999465942383
vn 0.20427651703357697 -0.9514906406402588 -0.23007987439632416
v 22.378599166870117 138.78298950195312 -8.546599388122559
vt 0.05689999833703041 0.36010003089904785
vn 0.658407986164093 -0.7511060237884521 -0.04835858568549156
v 25.725597381591797 148.08900451660156 -10.248899459838867
vt 0.4077000021934509 0.3368000388145447
vn -0.12245605885982513 0.3494499921798706 -0.9289182424545288
f 31/31/31 116/116/116/ 16/16/16
f 16/16/16 116/116/116/ 141/141/141
f 116/116/116 94/94/94/ 141/141/141
f 115/115/115 94/94/94/ 116/116/116
f 98/98/98 16/16/16/ 141/141/141
f 141/141/141 94/94/94/ 98/98/98
f 98/98/98 94/94/94/ 80/80/80
f 80/80/80 94/94/94/ 77/77/77
f 77/77/77 94/94/94/ 135/135/135
f 94/94/94 90/90/90/ 135/135/135
f 92/92/92 90/90/90/ 94/94/94
f 80/80/80 16/16/16/ 98/98/98
f 1/1/1 16/16/16/ 80/80/80
f 22/22/22 16/16/16/ 1/1/1
f 117/117/117 16/16/16/ 22/22/22
f 15/15/15 16/16/16/ 117/117/117
f 15/15/15 117/117/117/ 19/19/19
f 19/19/19 117/117/117/ 114/114/114
f 3/3/3 114/114/114/ 117/117/117
f 117/117/117 33/33/33/ 3/3/3
f 6/6/6 33/33/33/ 117/117/117
f 78/78/78 15/15/15/ 19/19/19
f 19/19/19 89/89/89/ 78/78/78
f 19/19/19 114/114/114/ 89/89/89
f 89/89/89 114/114/114/ 119/119/119
f 75/75/75 15/15/15/ 78/78/78
f 78/78/78 92/92/92/ 75/75/75
f 91/91/91 92/92/92/ 78/78/78
f 89/89/89 91/91/91/ 78/78/78
f 89/89/89 71/71/71/ 91/91/91
f 86/86/86 71/71/71/ 89/89/89
f 91/91/91 90/90/90/ 92/92/92
f 71/71/71 90/90/90/ 91/91/91
f 90/90/90 71/71/71/ 93/93/93
f 93/93/93 71/71/71/ 134/134/134
f 93/93/93 84/84/84/ 90/90/90
f 90/90/90 84/84/84/ 81/81/81
f 4/4/4 114/114/114/ 3/3/3
f 83/83/83 113/113/113/ 32/32/32
f 113/113/113 83/83/83/ 118/118/118
f 29/29/29 118/118/118/ 83/83/83
f 120/120/120 118/118/118/ 29/29/29
f 18/18/18 25/25/25/ 17/17/17
f 26/26/26 17/17/17/ 25/25/25
f 25/25/25 27/27/27/ 26/26/26
f 26/26/26 27/27/27/ 28/28/28
f 23/23/23 28/28/28/ 27/27/27
f 97/97/97 17/17/17/ 26/26/26
f 97/97/97 26/26/26/ 139/139/139
f 26/26/26 138/138/138/ 139/139/139
f 28/28/28 138/138/138/ 26/26/26
f 73/73/73 97/97/97/ 139/139/139
f 139/139/139 138/138/138/ 73/73/73
f 73/73/73 138/138/138/ 76/76/76
f 76/76/76 74/74/74/ 73/73/73
f 74/74/74 76/76/76/ 79/79/79
f 79/79/79 76/76/76/ 137/137/137
f 142/142/142 137/137/137/ 76/76/76
f 73/73/73 99/99/99/ 97/97/97
f 72/72/72 99/99/99/ 73/73/73
f 73/73/73 74/74/74/ 72/72/72
f 87/87/87 97/97/97/ 99/99/99
f 85/85/85 87/87/87/ 99/99/99
f 87/87/87 85/85/85/ 5/5/5
f 97/97/97 87/87/87/ 5/5/5
f 72/72/72 88/88/88/ 99/99/99
f 24/24/24 21/21/21/ 23/23/23
f 23/23/23 21/21/21/ 2/2/2
f 2/2/2 20/20/20/ 23/23/23
f 96/96/96 20/20/20/ 2/2/2
f 30/30/30 20/20/20/ 96/96/96
f 137/137/137 30/30/30/ 96/96/96
f 96/96/96 82/82/82/ 137/137/137
f 137/137/137 82/82/82/ 79/79/79
f 82/82/82 95/95/95/ 79/79/79
f 20/20/20 28/28/28/ 23/23/23
f 20/20/20 142/142/142/ 28/28/28
f 140/140/140 142/142/142/ 20/20/20
f 30/30/30 140/140/140/ 20/20/20
f 140/140/140 30/30/30/ 137/137/137
f 140/140/140 137/137/137/ 142/142/142
f 79/79/79 95/95/95/ 136/136/136
f 57/57/57 175/175/175/ 259/259/259
f 259/259/259 175/175/175/ 173/173/173
f 173/173/173 282/282/282/ 259/259/259
f 283/283/283 282/282/282/ 173/173/173
f 173/173/173 161/161/161/ 283/283/283
f 173/173/173 174/174/174/ 161/161/161
f 173/173/173 214/214/214/ 174/174/174
f 259/259/259 282/282/282/ 172/172/172
f 172/172/172 282/282/282/ 231/231/231
f 11/11/11 231/231/231/ 282/282/282
f 37/37/37 231/231/231/ 11/11/11
f 37/37/37 11/11/11/ 14/14/14
f 14/14/14 11/11/11/ 35/35/35
f 171/171/171 259/259/259/ 172/172/172
f 121/121/121 259/259/259/ 171/171/171
f 35/35/35 58/58/58/ 14/14/14
f 55/55/55 58/58/58/ 35/35/35
f 35/35/35 7/7/7/ 55/55/55
f 56/56/56 7/7/7/ 35/35/35
f 56/56/56 35/35/35/ 13/13/13
f 13/13/13 35/35/35/ 12/12/12
f 282/282/282 13/13/13/ 12/12/12
f 283/283/283 13/13/13/ 282/282/282
f 55/55/55 121/121/121/ 58/58/58
f 58/58/58 121/121/121/ 125/125/125
f 260/260/260 241/241/241/ 163/163/163
f 163/163/163 241/241/241/ 280/280/280
f 280/280/280 241/241/241/ 36/36/36
f 36/36/36 241/241/241/ 34/34/34
f 36/36/36 34/34/34/ 60/60/60
f 60/60/60 34/34/34/ 130/130/130
f 130/130/130 128/128/128/ 60/60/60
f 163/163/163 280/280/280/ 261/261/261
f 261/261/261 280/280/280/ 262/262/262
f 262/262/262 280/280/280/ 111/111/111
f 111/111/111 280/280/280/ 36/36/36
f 111/111/111 36/36/36/ 61/61/61
f 61/61/61 36/36/36/ 60/60/60
f 60/60/60 59/59/59/ 61/61/61
f 49/49/49 59/59/59/ 60/60/60
f 60/60/60 128/128/128/ 49/49/49
f 128/128/128 124/124/124/ 49/49/49
f 105/105/105 124/124/124/ 128/128/128
f 262/262/262 256/256/256/ 261/261/261
f 164/164/164 256/256/256/ 262/262/262
f 164/164/164 262/262/262/ 112/112/112
f 112/112/112 262/262/262/ 111/111/111
f 112/112/112 111/111/111/ 47/47/47
f 47/47/47 111/111/111/ 61/61/61
f 61/61/61 129/129/129/ 47/47/47
f 59/59/59 129/129/129/ 61/61/61
f 59/59/59 104/104/104/ 129/129/129
f 123/123/123 104/104/104/ 59/59/59
f 49/49/49 123/123/123/ 59/59/59
f 124/124/124 123/123/123/ 49/49/49
f 124/124/124 158/158/158/ 123/123/123
f 124/124/124 170/170/170/ 158/158/158
f 105/105/105 170/170/170/ 124/124/124
f 123/123/123 103/103/103/ 104/104/104
f 123/123/123 145/145/145/ 103/103/103
f 123/123/123 158/158/158/ 145/145/145
f 103/103/103 145/145/145/ 157/157/157
f 55/55/55 10/10/10/ 57/57/57
f 9/9/9 10/10/10/ 55/55/55
f 55/55/55 8/8/8/ 9/9/9
f 55/55/55 7/7/7/ 8/8/8
f 7/7/7 212/212/212/ 8/8/8
f 56/56/56 212/212/212/ 7/7/7
f 110/110/110 212/212/212/ 56/56/56
f 56/56/56 109/109/109/ 110/110/110
f 9/9/9 8/8/8/ 232/232/232
f 8/8/8 212/212/212/ 232/232/232
f 212/212/212 274/274/274/ 232/232/232
f 110/110/110 274/274/274/ 212/212/212
f 110/110/110 38/38/38/ 274/274/274
f 110/110/110 109/109/109/ 38/38/38
f 283/283/283 38/38/38/ 109/109/109
f 161/161/161 38/38/38/ 283/283/283
f 160/160/160 38/38/38/ 161/161/161
f 174/174/174 160/160/160/ 161/161/161
f 9/9/9 232/232/232/ 214/214/214
f 214/214/214 232/232/232/ 275/275/275
f 232/232/232 234/234/234/ 275/275/275
f 274/274/274 234/234/234/ 232/232/232
f 174/174/174 214/214/214/ 275/275/275
f 275/275/275 234/234/234/ 174/174/174
f 174/174/174 234/234/234/ 160/160/160
f 273/273/273 38/38/38/ 160/160/160
f 274/274/274 38/38/38/ 273/273/273
f 247/247/247 188/188/188/ 333/333/333
f 187/187/187 188/188/188/ 247/247/247
f 247/247/247 197/197/197/ 187/187/187
f 199/199/199 197/197/197/ 247/247/247
f 199/199/199 247/247/247/ 151/151/151
f 151/151/151 247/247/247/ 350/350/350
f 187/187/187 197/197/197/ 198/198/198
f 197/197/197 291/291/291/ 198/198/198
f 292/292/292 291/291/291/ 197/197/197
f 292/292/292 318/318/318/ 291/291/291
f 203/203/203 187/187/187/ 198/198/198
f 198/198/198 319/319/319/ 203/203/203
f 317/317/317 319/319/319/ 198/198/198
f 319/319/319 317/317/317/ 349/349/349
f 349/349/349 317/317/317/ 309/309/309
f 206/206/206 187/187/187/ 203/203/203
f 202/202/202 206/206/206/ 203/203/203
f 203/203/203 319/319/319/ 202/202/202
f 202/202/202 319/319/319/ 345/345/345
f 345/345/345 319/319/319/ 343/343/343
f 343/343/343 319/319/319/ 349/349/349
f 342/342/342 343/343/343/ 349/349/349
f 349/349/349 309/309/309/ 342/342/342
f 206/206/206 326/326/326/ 187/187/187
f 304/304/304 326/326/326/ 206/206/206
f 206/206/206 306/306/306/ 304/304/304
f 202/202/202 306/306/306/ 206/206/206
f 304/304/304 346/346/346/ 326/326/326
f 306/306/306 346/346/346/ 304/304/304
f 306/306/306 343/343/343/ 346/346/346
f 346/346/346 343/343/343/ 342/342/342
f 346/346/346 342/342/342/ 344/344/344
f 344/344/344 342/342/342/ 310/310/310
f 342/342/342 309/309/309/ 310/310/310
f 310/310/310 309/309/309/ 318/318/318
f 291/291/291 318/318/318/ 309/309/309
f 326/326/326 346/346/346/ 335/335/335
f 344/344/344 335/335/335/ 346/346/346
f 344/344/344 325/325/325/ 335/335/335
f 344/344/344 310/310/310/ 325/325/325
f 325/325/325 310/310/310/ 318/318/318
f 318/318/318 336/336/336/ 325/325/325
f 290/290/290 336/336/336/ 318/318/318
f 318/318/318 305/305/305/ 290/290/290
f 290/290/290 305/305/305/ 303/303/303
f 305/305/305 153/153/153/ 303/303/303
f 197/197/197 153/153/153/ 305/305/305
f 325/325/325 334/334/334/ 335/335/335
f 333/333/333 334/334/334/ 325/325/325
f 153/153/153 197/197/197/ 199/199/199
f 336/336/336 350/350/350/ 325/325/325
f 351/351/351 350/350/350/ 336/336/336
f 253/253/253 155/155/155/ 178/178/178
f 156/156/156 155/155/155/ 253/253/253
f 254/254/254 156/156/156/ 253/253/253
f 266/266/266 156/156/156/ 254/254/254
f 254/254/254 186/186/186/ 266/266/266
f 266/266/266 186/186/186/ 252/252/252
f 316/316/316 266/266/266/ 252/252/252
f 311/311/311 155/155/155/ 156/156/156
f 311/311/311 156/156/156/ 289/289/289
f 289/289/289 156/156/156/ 266/266/266
f 289/289/289 266/266/266/ 316/316/316
f 297/297/297 289/289/289/ 316/316/316
f 299/299/299 289/289/289/ 297/297/297
f 297/297/297 300/300/300/ 299/299/299
f 299/299/299 300/300/300/ 313/313/313
f 300/300/300 353/353/353/ 313/313/313
f 315/315/315 155/155/155/ 311/311/311
f 285/285/285 315/315/315/ 311/311/311
f 285/285/285 311/311/311/ 299/299/299
f 299/299/299 311/311/311/ 289/289/289
f 341/341/341 315/315/315/ 285/285/285
f 285/285/285 339/339/339/ 341/341/341
f 286/286/286 339/339/339/ 285/285/285
f 285/285/285 313/313/313/ 286/286/286
f 299/299/299 313/313/313/ 285/285/285
f 286/286/286 323/323/323/ 339/339/339
f 286/286/286 354/354/354/ 323/323/323
f 313/313/313 354/354/354/ 286/286/286
f 313/313/313 353/353/353/ 354/354/354
f 322/322/322 354/354/354/ 353/353/353
f 322/322/322 179/179/179/ 354/354/354
f 180/180/180 179/179/179/ 322/322/322
f 339/339/339 323/323/323/ 324/324/324
f 323/323/323 152/152/152/ 324/324/324
f 154/154/154 152/152/152/ 323/323/323
f 354/354/354 154/154/154/ 323/323/323
f 179/179/179 154/154/154/ 354/354/354
f 211/211/211 148/148/148/ 159/159/159
f 148/148/148 226/226/226/ 159/159/159
f 148/148/148 228/228/228/ 226/226/226
f 146/146/146 228/228/228/ 148/148/148
f 215/215/215 146/146/146/ 148/148/148
f 215/215/215 148/148/148/ 211/211/211
f 215/215/215 211/211/211/ 233/233/233
f 233/233/233 211/211/211/ 213/213/213
f 213/213/213 239/239/239/ 233/233/233
f 159/159/159 226/226/226/ 239/239/239
f 233/233/233 239/239/239/ 226/226/226
f 233/233/233 226/226/226/ 235/235/235
f 235/235/235 226/226/226/ 228/228/228
f 240/240/240 235/235/235/ 228/228/228
f 146/146/146 240/240/240/ 228/228/228
f 147/147/147 240/240/240/ 146/146/146
f 147/147/147 146/146/146/ 217/217/217
f 217/217/217 146/146/146/ 276/276/276
f 276/276/276 146/146/146/ 215/215/215
f 276/276/276 215/215/215/ 235/235/235
f 235/235/235 215/215/215/ 233/233/233
f 235/235/235 217/217/217/ 276/276/276
f 216/216/216 217/217/217/ 235/235/235
f 216/216/216 235/235/235/ 240/240/240
f 225/225/225 216/216/216/ 240/240/240
f 147/147/147 225/225/225/ 240/240/240
f 144/144/144 225/225/225/ 147/147/147
f 144/144/144 147/147/147/ 218/218/218
f 218/218/218 147/147/147/ 217/217/217
f 216/216/216 218/218/218/ 217/217/217
f 236/236/236 218/218/218/ 216/216/216
f 236/236/236 216/216/216/ 225/225/225
f 236/236/236 225/225/225/ 219/219/219
f 219/219/219 225/225/225/ 227/227/227
f 144/144/144 227/227/227/ 225/225/225
f 143/143/143 227/227/227/ 144/144/144
f 143/143/143 144/144/144/ 277/277/277
f 277/277/277 144/144/144/ 218/218/218
f 236/236/236 277/277/277/ 218/218/218
f 219/219/219 277/277/277/ 236/236/236
f 219/219/219 220/220/220/ 277/277/277
f 222/222/222 220/220/220/ 219/219/219
f 219/219/219 227/227/227/ 222/222/222
f 222/222/222 227/227/227/ 229/229/229
f 143/143/143 229/229/229/ 227/227/227
f 169/169/169 229/229/229/ 143/143/143
f 169/169/169 143/143/143/ 220/220/220
f 220/220/220 143/143/143/ 277/277/277
f 222/222/222 229/229/229/ 278/278/278
f 278/278/278 229/229/229/ 230/230/230
f 278/278/278 230/230/230/ 223/223/223
f 223/223/223 230/230/230/ 281/281/281
f 278/278/278 237/237/237/ 222/222/222
f 278/278/278 221/221/221/ 237/237/237
f 223/223/223 221/221/221/ 278/278/278
f 223/223/223 224/224/224/ 221/221/221
f 238/238/238 224/224/224/ 223/223/223
f 223/223/223 281/281/281/ 238/238/238
f 222/222/222 237/237/237/ 220/220/220
f 237/237/237 169/169/169/ 220/220/220
f 131/131/131 169/169/169/ 237/237/237
f 133/133/133 131/131/131/ 237/237/237
f 132/132/132 131/131/131/ 133/133/133
f 224/224/224 132/132/132/ 133/133/133
f 69/69/69 132/132/132/ 224/224/224
f 279/279/279 69/69/69/ 224/224/224
f 238/238/238 279/279/279/ 224/224/224
f 279/279/279 238/238/238/ 284/284/284
f 238/238/238 281/281/281/ 284/284/284
f 131/131/131 70/70/70/ 169/169/169
f 131/131/131 132/132/132/ 70/70/70
f 70/70/70 132/132/132/ 281/281/281
f 132/132/132 69/69/69/ 281/281/281
f 281/281/281 69/69/69/ 284/284/284
f 284/284/284 69/69/69/ 279/279/279
f 169/169/169 70/70/70/ 229/229/229
f 167/167/167 102/102/102/ 166/166/166
f 166/166/166 102/102/102/ 53/53/53
f 102/102/102 62/62/62/ 53/53/53
f 53/53/53 62/62/62/ 54/54/54
f 62/62/62 40/40/40/ 54/54/54
f 62/62/62 63/63/63/ 40/40/40
f 62/62/62 66/66/66/ 63/63/63
f 167/167/167 166/166/166/ 258/258/258
f 258/258/258 166/166/166/ 168/168/168
f 53/53/53 168/168/168/ 166/166/166
f 41/41/41 168/168/168/ 53/53/53
f 53/53/53 39/39/39/ 41/41/41
f 54/54/54 39/39/39/ 53/53/53
f 40/40/40 39/39/39/ 54/54/54
f 162/162/162 167/167/167/ 258/258/258
f 258/258/258 48/48/48/ 162/162/162
f 43/43/43 48/48/48/ 258/258/258
f 43/43/43 46/46/46/ 48/48/48
f 65/65/65 46/46/46/ 43/43/43
f 255/255/255 167/167/167/ 162/162/162
f 255/255/255 162/162/162/ 165/165/165
f 165/165/165 162/162/162/ 257/257/257
f 44/44/44 257/257/257/ 162/162/162
f 122/122/122 257/257/257/ 44/44/44
f 122/122/122 44/44/44/ 42/42/42
f 42/42/42 44/44/44/ 46/46/46
f 255/255/255 66/66/66/ 167/167/167
f 68/68/68 66/66/66/ 255/255/255
f 63/63/63 66/66/66/ 68/68/68
f 255/255/255 165/165/165/ 67/67/67
f 67/67/67 165/165/165/ 64/64/64
f 51/51/51 67/67/67/ 64/64/64
f 63/63/63 67/67/67/ 51/51/51
f 51/51/51 100/100/100/ 63/63/63
f 51/51/51 50/50/50/ 100/100/100
f 100/100/100 50/50/50/ 108/108/108
f 50/50/50 42/42/42/ 108/108/108
f 108/108/108 42/42/42/ 46/46/46
f 108/108/108 46/46/46/ 107/107/107
f 107/107/107 46/46/46/ 65/65/65
f 40/40/40 63/63/63/ 100/100/100
f 100/100/100 108/108/108/ 40/40/40
f 40/40/40 108/108/108/ 107/107/107
f 107/107/107 39/39/39/ 40/40/40
f 39/39/39 107/107/107/ 65/65/65
f 65/65/65 41/41/41/ 39/39/39
f 52/52/52 41/41/41/ 65/65/65
f 41/41/41 52/52/52/ 168/168/168
f 168/168/168 52/52/52/ 258/258/258
f 205/205/205 207/207/207/ 312/312/312
f 312/312/312 207/207/207/ 302/302/302
f 207/207/207 201/201/201/ 302/302/302
f 207/207/207 191/191/191/ 201/201/201
f 184/184/184 191/191/191/ 207/207/207
f 205/205/205 184/184/184/ 207/207/207
f 189/189/189 184/184/184/ 205/205/205
f 189/189/189 301/301/301/ 184/184/184
f 249/249/249 301/301/301/ 189/189/189
f 301/301/301 312/312/312/ 302/302/302
f 301/301/301 302/302/302/ 185/185/185
f 185/185/185 302/302/302/ 269/269/269
f 302/302/302 201/201/201/ 269/269/269
f 269/269/269 201/201/201/ 242/242/242
f 242/242/242 201/201/201/ 272/272/272
f 201/201/201 193/193/193/ 272/272/272
f 191/191/191 193/193/193/ 201/201/201
f 249/249/249 312/312/312/ 301/301/301
f 269/269/269 242/242/242/ 185/185/185
f 185/185/185 242/242/242/ 268/268/268
f 242/242/242 271/271/271/ 268/268/268
f 242/242/242 272/272/272/ 271/271/271
f 271/271/271 272/272/272/ 209/209/209
f 272/272/272 192/192/192/ 209/209/209
f 193/193/193 192/192/192/ 272/272/272
f 193/193/193 268/268/268/ 192/192/192
f 193/193/193 185/185/185/ 268/268/268
f 191/191/191 185/185/185/ 193/193/193
f 191/191/191 184/184/184/ 185/185/185
f 185/185/185 184/184/184/ 301/301/301
f 192/192/192 268/268/268/ 243/243/243
f 268/268/268 271/271/271/ 243/243/243
f 271/271/271 210/210/210/ 243/243/243
f 271/271/271 209/209/209/ 210/210/210
f 210/210/210 209/209/209/ 208/208/208
f 209/209/209 181/181/181/ 208/208/208
f 192/192/192 181/181/181/ 209/209/209
f 181/181/181 192/192/192/ 270/270/270
f 270/270/270 192/192/192/ 243/243/243
f 243/243/243 210/210/210/ 270/270/270
f 210/210/210 244/244/244/ 270/270/270
f 210/210/210 208/208/208/ 244/244/244
f 244/244/244 208/208/208/ 204/204/204
f 208/208/208 264/264/264/ 204/204/204
f 181/181/181 264/264/264/ 208/208/208
f 264/264/264 181/181/181/ 248/248/248
f 248/248/248 181/181/181/ 270/270/270
f 270/270/270 244/244/244/ 248/248/248
f 244/244/244 196/196/196/ 248/248/248
f 244/244/244 204/204/204/ 196/196/196
f 196/196/196 204/204/204/ 45/45/45
f 204/204/204 127/127/127/ 45/45/45
f 264/264/264 127/127/127/ 204/204/204
f 196/196/196 45/45/45/ 101/101/101
f 101/101/101 45/45/45/ 106/106/106
f 127/127/127 106/106/106/ 45/45/45
f 265/265/265 106/106/106/ 127/127/127
f 265/265/265 126/126/126/ 106/106/106
f 246/246/246 126/126/126/ 265/265/265
f 246/246/246 265/265/265/ 250/250/250
f 250/250/250 265/265/265/ 194/194/194
f 265/265/265 245/245/245/ 194/194/194
f 101/101/101 106/106/106/ 182/182/182
f 182/182/182 106/106/106/ 126/126/126
f 126/126/126 183/183/183/ 182/182/182
f 126/126/126 246/246/246/ 183/183/183
f 250/250/250 183/183/183/ 246/246/246
f 183/183/183 250/250/250/ 182/182/182
f 194/194/194 182/182/182/ 250/250/250
f 190/190/190 182/182/182/ 194/194/194
f 195/195/195 190/190/190/ 194/194/194
f 194/194/194 245/245/245/ 195/195/195
f 245/245/245 264/264/264/ 195/195/195
f 195/195/195 264/264/264/ 248/248/248
f 248/248/248 196/196/196/ 195/195/195
f 196/196/196 190/190/190/ 195/195/195
f 251/251/251 294/294/294/ 176/176/176
f 293/293/293 294/294/294/ 251/251/251
f 251/251/251 149/149/149/ 293/293/293
f 149/149/149 251/251/251/ 200/200/200
f 200/200/200 251/251/251/ 176/176/176
f 200/200/200 176/176/176/ 263/263/263
f 263/263/263 176/176/176/ 150/150/150
f 176/176/176 337/337/337/ 150/150/150
f 293/293/293 330/330/330/ 294/294/294
f 321/321/321 330/330/330/ 293/293/293
f 293/293/293 288/288/288/ 321/321/321
f 287/287/287 288/288/288/ 293/293/293
f 293/293/293 149/149/149/ 287/287/287
f 149/149/149 295/295/295/ 287/287/287
f 200/200/200 295/295/295/ 149/149/149
f 355/355/355 330/330/330/ 321/321/321
f 288/288/288 355/355/355/ 321/321/321
f 314/314/314 355/355/355/ 288/288/288
f 314/314/314 288/288/288/ 296/296/296
f 288/288/288 287/287/287/ 296/296/296
f 296/296/296 287/287/287/ 295/295/295
f 355/355/355 332/332/332/ 330/330/330
f 340/340/340 332/332/332/ 355/355/355
f 355/355/355 327/327/327/ 340/340/340
f 314/314/314 327/327/327/ 355/355/355
f 314/314/314 348/348/348/ 327/327/327
f 296/296/296 348/348/348/ 314/314/314
f 320/320/320 348/348/348/ 296/296/296
f 352/352/352 348/348/348/ 320/320/320
f 200/200/200 352/352/352/ 320/320/320
f 332/332/332 337/337/337/ 330/330/330
f 347/347/347 337/337/337/ 332/332/332
f 150/150/150 337/337/337/ 347/347/347
f 263/263/263 352/352/352/ 200/200/200
f 348/348/348 338/338/338/ 327/327/327
f 327/327/327 338/338/338/ 328/328/328
f 327/327/327 328/328/328/ 340/340/340
f 340/340/340 328/328/328/ 298/298/298
f 340/340/340 298/298/298/ 332/332/332
f 298/298/298 331/331/331/ 332/332/332
f 329/329/329 331/331/331/ 298/298/298
f 329/329/329 177/177/177/ 331/331/331
f 331/331/331 177/177/177/ 150/150/150
f 177/177/177 263/263/263/ 150/150/150
f 267/267/267 263/263/263/ 177/177/177
f 263/263/263 267/267/267/ 307/307/307
f 307/307/307 267/267/267/ 308/308/308
f 338/338/338 307/307/307/ 308/308/308
f 348/348/348 307/307/307/ 338/338/338
